<svg width="104" height="113" viewBox="0 0 104 113" fill="none" xmlns="http://www.w3.org/2000/svg">
<path d="M80.9375 39.875L77.25 42.3125C75 38.9792 72.0625 36.3542 68.4375 34.4375C64.8542 32.4792 60.9583 31.5 56.75 31.5C49.9167 31.5 44.0833 33.9167 39.25 38.75C34.4167 43.5833 32 49.4167 32 56.25C32 63.0833 34.4167 68.9167 39.25 73.75C44.0833 78.5833 49.9167 81 56.75 81C60.9583 81 64.8542 80.0208 68.4375 78.0625C72.0625 76.1042 75 73.4583 77.25 70.125L80.875 72.75C78.2083 76.6667 74.75 79.7708 70.5 82.0625C66.25 84.3542 61.6667 85.5 56.75 85.5C52.7917 85.5 49 84.7292 45.375 83.1875C41.7917 81.6458 38.6875 79.5625 36.0625 76.9375C33.4375 74.3125 31.3542 71.2083 29.8125 67.625C28.2708 64 27.5 60.2083 27.5 56.25C27.5 52.2917 28.2708 48.5208 29.8125 44.9375C31.3542 41.3125 33.4375 38.1875 36.0625 35.5625C38.6875 32.9375 41.7917 30.8542 45.375 29.3125C49 27.7708 52.7917 27 56.75 27C61.7083 27 66.3125 28.1667 70.5625 30.5C74.8125 32.7917 78.2708 35.9167 80.9375 39.875ZM88.375 34.75L84.625 37.1875C81.5417 32.6875 77.5417 29.125 72.625 26.5C67.75 23.8333 62.4583 22.5 56.75 22.5C50.625 22.5 44.9792 24.0208 39.8125 27.0625C34.6458 30.0625 30.5417 34.1458 27.5 39.3125C24.5 44.4792 23 50.125 23 56.25C23 62.375 24.5 68.0208 27.5 73.1875C30.5417 78.3542 34.6458 82.4583 39.8125 85.5C44.9792 88.5 50.625 90 56.75 90C62.4583 90 67.7708 88.6667 72.6875 86C77.6042 83.3333 81.6042 79.7292 84.6875 75.1875L88.375 77.75C84.875 82.9167 80.3333 87 74.75 90C69.2083 93 63.2083 94.5 56.75 94.5C49.8333 94.5 43.4375 92.7917 37.5625 89.375C31.6875 85.9583 27.0417 81.3125 23.625 75.4375C20.2083 69.5625 18.5 63.1667 18.5 56.25C18.5 49.3333 20.2083 42.9375 23.625 37.0625C27.0417 31.1875 31.6875 26.5417 37.5625 23.125C43.4375 19.7083 49.8333 18 56.75 18C63.2083 18 69.2083 19.5 74.75 22.5C80.3333 25.5 84.875 29.5833 88.375 34.75ZM95.875 29.75L92.125 32.1875C88.2083 26.4375 83.125 21.8958 76.875 18.5625C70.6667 15.1875 63.9583 13.5 56.75 13.5C50.9583 13.5 45.4167 14.625 40.125 16.875C34.8333 19.125 30.2708 22.1667 26.4375 26C22.6458 29.7917 19.625 34.3333 17.375 39.625C15.125 44.9167 14 50.4583 14 56.25C14 62.0417 15.125 67.5833 17.375 72.875C19.625 78.1667 22.6458 82.7292 26.4375 86.5625C30.2708 90.3542 34.8333 93.375 40.125 95.625C45.4167 97.875 50.9583 99 56.75 99C64 99 70.7292 97.3125 76.9375 93.9375C83.1458 90.5625 88.2083 86 92.125 80.25L95.75 82.9375C91.4167 89.2708 85.8125 94.2917 78.9375 98C72.1042 101.667 64.7083 103.5 56.75 103.5C48.2083 103.5 40.3125 101.396 33.0625 97.1875C25.8125 92.9375 20.0625 87.1875 15.8125 79.9375C11.6042 72.6875 9.5 64.7917 9.5 56.25C9.5 47.7083 11.6042 39.8125 15.8125 32.5625C20.0625 25.3125 25.8125 19.5833 33.0625 15.375C40.3125 11.125 48.2083 9 56.75 9C64.75 9 72.1875 10.875 79.0625 14.625C85.9375 18.3333 91.5417 23.375 95.875 29.75ZM103.25 24.625L99.5 27.0625C94.75 20.1042 88.6042 14.6042 81.0625 10.5625C73.5625 6.52083 65.4583 4.5 56.75 4.5C49.75 4.5 43.0417 5.875 36.625 8.625C30.25 11.3333 24.75 15 20.125 19.625C15.5 24.25 11.8125 29.7708 9.0625 36.1875C6.35417 42.5625 5 49.25 5 56.25C5 63.25 6.35417 69.9583 9.0625 76.375C11.8125 82.75 15.5 88.25 20.125 92.875C24.75 97.5 30.25 101.188 36.625 103.938C43.0417 106.646 49.75 108 56.75 108C65.4583 108 73.5833 105.958 81.125 101.875C88.6667 97.7917 94.8125 92.2708 99.5625 85.3125L103.188 88.0625C98.0208 95.5625 91.3542 101.521 83.1875 105.938C75.0208 110.312 66.2083 112.5 56.75 112.5C49.125 112.5 41.8333 111 34.875 108C27.9583 105.042 21.9792 101.062 16.9375 96.0625C11.9375 91.0208 7.9375 85.0417 4.9375 78.125C1.97917 71.1667 0.5 63.875 0.5 56.25C0.5 48.625 1.97917 41.3542 4.9375 34.4375C7.9375 27.4792 11.9375 21.5 16.9375 16.5C21.9792 11.4583 27.9583 7.45833 34.875 4.5C41.8333 1.5 49.125 0 56.75 0C66.25 0 75.0833 2.20833 83.25 6.625C91.4167 11.0417 98.0833 17.0417 103.25 24.625Z" fill="#AFC396"/>
</svg>
